<svg t="1731464124508" class="icon" viewBox="0 0 1024 1024" version="1.1" xmlns="http://www.w3.org/2000/svg" p-id="967" width="200" height="200"><path d="M720.64 952.32a412.928 412.928 0 0 1-116.9408-18.1248c-107.9296-31.744-220.9792-102.7584-318.2592-200.0384s-168.2944-210.1248-200.0384-318.1568C69.0176 360.2432 63.6928 308.1216 69.632 261.12c6.7584-53.4528 27.648-97.8944 61.7472-132.096l38.5536-38.5024a90.4704 90.4704 0 0 1 127.6416 0l169.5232 169.472a90.4704 90.4704 0 0 1 0 127.6416l-36.3008 36.352c-1.6384 12.9536 12.288 58.4704 59.392 105.5744s92.5184 61.0304 105.5744 59.392l36.3008-36.3008a90.5216 90.5216 0 0 1 127.6928 0l169.472 169.472a90.4704 90.4704 0 0 1 0 127.6416l-38.3488 38.6048c-34.2528 34.2016-78.6944 54.9888-132.1472 61.7472a313.1904 313.1904 0 0 1-38.0928 2.2016zM233.7792 135.7824a18.5344 18.5344 0 0 0-13.2096 5.4272l-38.5024 38.5024c-22.6816 22.6816-36.608 53.1456-41.3184 90.4192s0 79.4112 13.4144 125.6448c28.416 96.7168 93.0304 198.9632 181.9648 287.8464s191.1808 153.6 287.7952 181.9648a336.0256 336.0256 0 0 0 96.6656 15.36 229.2224 229.2224 0 0 0 29.0816-1.8432c37.2224-4.7104 67.6352-18.5856 90.368-41.2672l38.5024-38.5536a18.688 18.688 0 0 0 0-26.3168l-169.472-169.472a18.688 18.688 0 0 0-26.368 0l-38.4512 38.4512c-21.5552 21.5552-57.0368 24.6784-99.8912 8.8064-35.328-13.1584-72.6016-38.144-104.8576-70.4s-57.2928-69.632-70.4-104.96c-15.9232-42.8544-12.8-78.336 8.7552-99.8912l38.5536-38.5024a18.688 18.688 0 0 0 0-26.368l-169.472-169.4208a18.5344 18.5344 0 0 0-13.1584-5.4272z" fill="#4E5B68" p-id="968"></path></svg>